<?xml version="1.0" encoding="utf-8"?>
<!-- Generator: Adobe Illustrator 19.1.0, SVG Export Plug-In . SVG Version: 6.00 Build 0)  -->
<svg version="1.1" id="Layer_1" xmlns="http://www.w3.org/2000/svg" xmlns:xlink="http://www.w3.org/1999/xlink" x="0px" y="0px"
	viewBox="0 0 149.8 39.8" enable-background="new 0 0 149.8 39.8" xml:space="preserve">
<g>
	<text xml:space="preserve" style="font-style:normal;font-weight:normal;font-size:2.71925px;line-height:1.25;font-family:sans-serif;fill:#0055A4;fill-opacity:1;stroke:none;stroke-width:0.509861" x="143.08537" y="32.567734">
		<tspan x="144.8" y="32.567734" style="font-style:normal;font-variant:normal;font-weight:normal;font-stretch:normal;font-size:2.71925px;font-family:Arial;-inkscape-font-specification:Arial;fill:#0055a4;fill-opacity:1;stroke-width:0.509861">SM</tspan>
	</text>
	<path fill="#0055A4" d="m 9.7,26.1 c 2.5,0 4,-1.6 4,-4.8 V 9.8 H 18 v 11.5 c 0,6 -3.3,9.2 -8.4,9.2 -5.2,0 -8.5,-3.2 -8.5,-9.2 V 9.8 h 4.7 v 11 c 0.080136,2.902026 1.7300152,5.246593 3.9,5.3 z" />
	<polygon fill="#0055A4" points="37.5,14 31.1,14 31.1,9.8 48.7,9.8 48.7,14 42.3,14 42.3,29.9 37.5,29.9" />
	<path fill="#0055A4" d="M66.3,23.5l2.6-6.2V9.3L58.8,29.9h4.8l1.3-2.9h4v-3.5H66.3z M68.9,17.3L68.9,17.3l2.6,6.2h-2.6v3.5H73 l1.3,2.9h5l-10-20.7H69l-0.1,0.2V17.3z" />
	<rect x="93" y="9.6" fill="#EC1C24" width="56" height="10" />
	<rect x="93" y="23.6" fill="#0055A4" width="56" height="6" />
	<path fill="#0055A4" d="m 120.9,0.9 c -6.7,0 -12.51406,3.40625 -15.91406,8.70625 h 4.9 C 112.68594,6.60625 116.5,4.8 120.9,4.8 c 8.3,0 15.1,6.8 15.1,15.1 0,8.3 -6.99687,14.795313 -15.39687,14.795313 -4.5,0 -8.5,-2 -11.3,-5.1 h -4.8 c 3.3,5.4 9.3,9 16.1,9 10.5,0 19.29687,-8.195313 19.29687,-18.695313 0,-10.5 -8.4,-19 -19,-19" />
</g>
</svg>
